<svg width="116" height="30" viewBox="0 0 116 30" fill="none" xmlns="http://www.w3.org/2000/svg">
  <g clip-path="url(#clip0_166_2381)">
      <path d="M1.4509e-05 1.03668V28.541C0.000448029 28.6842 0.0314617 28.8257 0.0910995 28.9567C0.150737 29.0876 0.237708 29.2052 0.346537 29.302C0.455365 29.3988 0.583693 29.4727 0.723438 29.5191C0.863183 29.5655 1.01132 29.5833 1.15852 29.5714C5.00862 29.2962 8.60866 27.619 11.2355 24.8769C13.8623 22.1347 15.3213 18.5308 15.3195 14.7888C15.3203 11.0499 13.8638 7.44863 11.2417 4.70625C8.61956 1.96386 5.02542 0.282793 1.17896 -0.000335967C1.02957 -0.0151715 0.878635 0.000636477 0.735968 0.046067C0.593301 0.0914974 0.462102 0.165529 0.350899 0.263346C0.239695 0.361164 0.150981 0.480579 0.0905276 0.613818C0.0300744 0.747056 -0.000767551 0.891133 1.4509e-05 1.03668Z" fill="white"></path>
      <path d="M16.0418 1.30784C16.5735 4.44272 18.1769 7.31342 20.5943 9.45887C23.0117 11.6043 26.1029 12.9 29.3714 13.1379C29.5115 13.1469 29.6522 13.128 29.7845 13.0823C29.9169 13.0367 30.0382 12.9652 30.141 12.8724C30.2438 12.7796 30.3259 12.6673 30.3822 12.5426C30.4385 12.4179 30.4679 12.2832 30.4685 12.1471V1.13611C30.4694 1.00662 30.4438 0.878247 30.3931 0.758444C30.3424 0.63864 30.2676 0.529794 30.1732 0.438229C30.0787 0.346664 29.9664 0.274201 29.8428 0.225052C29.7192 0.175903 29.5867 0.151042 29.4531 0.15192H17.0367C16.888 0.15026 16.7408 0.180711 16.6058 0.241057C16.4707 0.301403 16.3513 0.390132 16.256 0.500809C16.1607 0.611485 16.0921 0.741331 16.055 0.880922C16.018 1.02051 16.0135 1.16635 16.0418 1.30784Z" fill="white"></path>
      <path d="M21.8615 17.5502L14.672 28.4488C14.6003 28.5551 14.5598 28.6782 14.5547 28.805C14.5497 28.9318 14.5803 29.0576 14.6433 29.1688C14.7063 29.2801 14.7993 29.3727 14.9124 29.4367C15.0255 29.5007 15.1544 29.5336 15.2853 29.5321H29.7393C29.8702 29.5336 29.9991 29.5007 30.1122 29.4367C30.2253 29.3727 30.3183 29.2801 30.3813 29.1688C30.4443 29.0576 30.4749 28.9318 30.4698 28.805C30.4648 28.6782 30.4243 28.5551 30.3526 28.4488L23.1631 17.5502C23.0936 17.4438 22.9976 17.3561 22.8838 17.2954C22.77 17.2346 22.6422 17.2028 22.5123 17.2028C22.3824 17.2028 22.2546 17.2346 22.1408 17.2954C22.027 17.3561 21.9309 17.4438 21.8615 17.5502Z" fill="white"></path>
      <path d="M72.7811 3.81787H66.9272V5.80605H72.7811V3.81787Z" fill="white"></path>
      <path d="M72.7742 7.75455V7.47052H66.9272V9.4521H70.7503V11.9093C70.7532 12.0321 70.7298 12.1541 70.6817 12.2678C70.6337 12.3815 70.5619 12.4843 70.4709 12.5698C70.3837 12.6593 70.2778 12.7298 70.1603 12.7765C70.0428 12.8232 69.9163 12.845 69.7894 12.8406H66.9204V14.8222H69.7894C70.1836 14.83 70.5753 14.7589 70.94 14.6135C71.3046 14.468 71.6344 14.2512 71.9088 13.9767C72.1891 13.7049 72.4102 13.3812 72.5589 13.0249C72.7076 12.6686 72.7808 12.2869 72.7742 11.9027V7.73474V7.75455Z" fill="white"></path>
      <path d="M72.7948 20.4037V16.7179H65.8847V7.50359V3.79803H57.3254V5.77961H63.9153V7.49698H57.3254V12.8605V14.7826V14.8751H63.9153V16.7179H57.3254V18.6995H63.9153V20.4037H57.3254V22.3852H63.9153V24.1554H57.3254V26.137H63.9153V26.7976C63.9191 26.9193 63.8976 27.0406 63.8519 27.1541C63.8062 27.2676 63.7374 27.371 63.6495 27.4581C63.5684 27.5466 63.4686 27.6172 63.3569 27.6651C63.2452 27.7129 63.1242 27.7369 63.0021 27.7355H60.9577V29.7171H63.0021C63.386 29.7216 63.7666 29.6474 64.1189 29.4994C64.4713 29.3515 64.7874 29.133 65.0465 28.8584C65.3212 28.5825 65.5367 28.2566 65.6806 27.8994C65.8245 27.5423 65.8939 27.161 65.8847 26.7777V26.1172H69.9122C70.2956 26.1226 70.6759 26.0494 71.0282 25.9026C71.3805 25.7558 71.6969 25.5386 71.9566 25.2651C72.2312 24.9878 72.4466 24.6607 72.5904 24.3025C72.7343 23.9443 72.8037 23.5621 72.7948 23.1779V22.3852H73.6194V20.4037H72.7948ZM63.9357 12.8671H59.3153V9.48516H63.9357V12.8671ZM70.839 23.2241C70.8438 23.3454 70.8233 23.4664 70.7788 23.5799C70.7343 23.6934 70.6667 23.797 70.58 23.8846C70.4975 23.971 70.3973 24.0396 70.2858 24.0863C70.1744 24.1329 70.0541 24.1565 69.9327 24.1554H65.8847V22.3852H70.8186L70.839 23.2241ZM70.839 20.4037H65.8847V18.6995H70.8186L70.839 20.4037Z" fill="white"></path>
      <path d="M53.6999 3.81787H42.1489V12.2924H44.1048V5.77303H45.3041V13.6399L41.6787 29.7501H43.7708C43.7708 29.7501 47.2736 13.7786 47.2736 13.739V5.75322H48.5139V13.6201L45.1065 29.7501H47.1509C47.1509 29.7501 50.4697 13.7786 50.4697 13.739V5.75322H51.71V26.7976C51.7181 27.04 51.6303 27.2763 51.4646 27.4581C51.3901 27.5477 51.297 27.621 51.1914 27.6733C51.0857 27.7257 50.9698 27.7559 50.8513 27.7619H48.9091L48.3708 29.7435H50.8036C51.1876 29.748 51.5682 29.6739 51.9205 29.5259C52.2728 29.3779 52.5889 29.1595 52.848 28.8848C53.1228 28.6063 53.3383 28.278 53.4821 27.9188C53.6259 27.5595 53.6953 27.1762 53.6862 26.791L53.6999 3.81787Z" fill="white"></path>
      <path d="M37.7057 23.3364H34.5369V25.3113H37.7057V23.3364Z" fill="white"></path>
      <path d="M38.7484 3.81787V5.27763H37.733L37.8557 3.81787H35.8658L34.5437 20.4235H36.5336L37.5762 7.25261H38.7484V29.7105H40.7315V3.81787H38.7484Z" fill="white"></path>
      <path d="M116 21.4803H110.146V23.4685H116V21.4803Z" fill="white"></path>
      <path d="M116 16.4933H110.146V18.4815H116V16.4933Z" fill="white"></path>
      <path d="M116 27.7817H110.146V29.7699H116V27.7817Z" fill="white"></path>
      <path d="M108.293 16.4933H107.093H100.592V18.4815H107.093V21.4803H100.592V23.4619H107.093V27.7817H100.592V29.7699H109.076V29.6444V27.7817V16.4933H108.293Z" fill="white"></path>
      <path d="M115.121 3.81787H100.715V14.7694H112.088C112.611 14.7737 113.129 14.663 113.601 14.4457C114.073 14.23 114.493 13.9219 114.835 13.5408C115.193 13.136 115.474 12.6731 115.666 12.1735C115.875 11.3209 115.98 10.4474 115.98 9.57106V3.81787H115.121ZM114.208 6.1165V9.57106C114.208 10.2316 114.003 11.6715 113.588 12.1273C113.409 12.3369 113.184 12.505 112.929 12.6193C112.674 12.7336 112.396 12.7911 112.116 12.7878H102.507V5.78624H114.208V6.1165Z" fill="white"></path>
      <path d="M97.7707 29.7699H95.2629L91.3171 20.1064H93.4638L97.7707 29.7699Z" fill="white"></path>
      <path d="M96.1964 16.7246V3.81787H92.8436V5.75982H94.2065V16.7246H91.8009V3.81787H88.4481C88.0454 3.82475 87.648 3.90846 87.2786 4.06423C86.9093 4.21999 86.5752 4.44476 86.2955 4.72569C86.0158 5.00662 85.7959 5.33821 85.6485 5.70151C85.501 6.06482 85.4288 6.45273 85.436 6.84308V8.99639V16.7246H84.6659V18.7061H89.3272L84.332 29.7369H86.4991L91.4807 18.7061H97.0278V16.7246H96.1964ZM89.8247 16.7246H87.4055V6.81666C87.4018 6.54449 87.5094 6.28199 87.7048 6.08645C87.9001 5.89092 88.1673 5.77824 88.4481 5.77303H89.8111L89.8247 16.7246Z" fill="white"></path>
      <path d="M83.7256 21.8899V3.81787H77.2107V29.7699H80.7407C81.1356 29.7781 81.528 29.7066 81.8928 29.5599C82.2577 29.4132 82.5871 29.1946 82.8601 28.9179C83.1398 28.6486 83.3601 28.3271 83.5077 27.9729C83.6553 27.6186 83.7271 27.239 83.7187 26.857V21.8899H83.7256ZM79.1938 5.56166H81.7425V13.0256H79.1938V5.56166ZM81.7425 22.7353V26.89C81.7466 27.0124 81.7246 27.1343 81.6777 27.248C81.6307 27.3617 81.56 27.4647 81.4699 27.5506C81.2736 27.7262 81.0146 27.8209 80.7475 27.8148H79.1938V15.0468H81.7425V22.7419V22.7353Z" fill="white"></path>
  </g>
  <defs>
      <clipPath id="clip0_166_2381">
          <rect width="116" height="29.7699" fill="white"></rect>
      </clipPath>
  </defs>
</svg>