<svg width="188" height="50" viewBox="0 0 188 50" fill="none" xmlns="http://www.w3.org/2000/svg">
  <g clip-path="url(#clip0_63_67)">
      <path d="M6.97407e-06 1.75519V48.245C0.000176859 48.4871 0.0495624 48.7266 0.145057 48.9483C0.240551 49.1701 0.380088 49.3694 0.554894 49.5336C0.7297 49.6978 0.935994 49.8234 1.1608 49.9025C1.38561 49.9816 1.62406 50.0125 1.86117 49.9933C8.06174 49.5273 13.8597 46.6912 18.0911 42.0541C22.3226 37.417 24.6744 31.3223 24.6744 24.9933C24.6744 18.6643 22.3226 12.5696 18.0911 7.93247C13.8597 3.2954 8.06174 0.459229 1.86117 -0.00671694C1.62316 -0.0250115 1.384 0.00700122 1.15872 0.0873166C0.933444 0.167632 0.726921 0.294506 0.552131 0.459974C0.377341 0.625442 0.238062 0.825922 0.143045 1.04882C0.0480288 1.27171 -0.000670579 1.51221 6.97407e-06 1.75519Z" fill="#47277A"></path>
      <path d="M25.8193 2.21431C26.6673 7.51963 29.2437 12.3804 33.134 16.0148C37.0244 19.6492 42.0025 21.8459 47.2678 22.2517C47.4939 22.2685 47.721 22.2378 47.9349 22.1613C48.1488 22.0849 48.345 21.9644 48.5111 21.8074C48.6773 21.6504 48.8099 21.4602 48.9007 21.2487C48.9914 21.0373 49.0385 20.809 49.0388 20.5782V1.9626C49.0388 1.52238 48.867 1.10018 48.5612 0.788898C48.2554 0.477613 47.8406 0.302734 47.4082 0.302734H27.4232C27.1884 0.302745 26.9565 0.354557 26.7433 0.454596C26.5302 0.554634 26.3409 0.700525 26.1884 0.882215C26.036 1.06391 25.924 1.27707 25.8603 1.50704C25.7966 1.737 25.7826 1.97831 25.8193 2.21431Z" fill="#47277A"></path>
      <path d="M35.1885 29.6631L23.6105 48.0848C23.497 48.2648 23.4333 48.4725 23.426 48.6862C23.4187 48.8999 23.468 49.1117 23.5689 49.2993C23.6697 49.4868 23.8184 49.6433 23.9991 49.7522C24.1799 49.8611 24.3861 49.9184 24.5962 49.9182H47.8658C48.0758 49.9184 48.2821 49.8611 48.4628 49.7522C48.6436 49.6433 48.7922 49.4868 48.8931 49.2993C48.9939 49.1117 49.0433 48.8999 49.036 48.6862C49.0286 48.4725 48.9649 48.2648 48.8515 48.0848L37.2735 29.6631C37.1618 29.4847 37.0077 29.3378 36.8255 29.2361C36.6433 29.1344 36.4388 29.0811 36.231 29.0811C36.0232 29.0811 35.8187 29.1344 35.6365 29.2361C35.4543 29.3378 35.3002 29.4847 35.1885 29.6631Z" fill="#47277A"></path>
      <path d="M117.287 12.8569V19.8059C117.289 20.0082 117.251 20.2088 117.176 20.3961C117.101 20.5834 116.99 20.7537 116.85 20.897C116.71 21.0404 116.543 21.154 116.359 21.2312C116.175 21.3084 115.979 21.3476 115.78 21.3467H111.242V24.6733H115.78C116.406 24.6863 117.028 24.5673 117.608 24.3238C118.187 24.0803 118.71 23.7175 119.145 23.2583C119.588 22.8055 119.937 22.2664 120.171 21.6733C120.405 21.0801 120.52 20.4451 120.508 19.8059V12.8569H117.287Z" fill="black"></path>
      <path d="M109.515 6.24512V12.405H106.387V9.60566H95.9385V6.25872H106.387V6.24512H109.515Z" fill="black"></path>
      <path d="M120.411 6.2583H111.195V9.60524H120.411V6.2583Z" fill="black"></path>
      <path d="M159.379 49.3807H155.392L149.117 33.2583H152.529L159.379 49.3807Z" fill="black"></path>
      <path d="M187.5 46.3096H178.197V49.4558H187.5V46.3096Z" fill="black"></path>
      <path d="M187.5 27.4521H178.197V30.7685H187.5V27.4521Z" fill="black"></path>
      <path d="M187.5 35.8638H178.197V39.1801H187.5V35.8638Z" fill="black"></path>
      <path d="M186.083 6.22461H163.001V24.6532H181.258C182.099 24.658 182.929 24.4697 183.688 24.1022C184.443 23.7376 185.116 23.219 185.666 22.5784C186.244 21.9003 186.697 21.1213 187.002 20.279C187.336 19.3981 187.497 16.9083 187.497 15.9083V6.22461H186.083ZM184.623 9.57495V15.9083C184.623 16.9763 184.289 19.4389 183.621 20.2042C183.336 20.5631 182.975 20.8526 182.566 21.0515C182.156 21.2505 181.709 21.3537 181.255 21.3539H165.885C165.885 21.3539 165.885 16.9763 165.885 15.9117V9.05454H184.617L184.623 9.57495Z" fill="black"></path>
      <path d="M120.511 12.4048H111.159V15.7041H120.511V12.4048Z" fill="black"></path>
      <path d="M120.474 33.8946V29.398C120.474 28.932 120.474 27.7653 120.474 27.7653C120.474 27.7653 119.382 27.7483 118.947 27.7483H109.515V12.4048H95.9385V21.3402V24.5204V24.6769H106.387V27.7381H95.9385V31.0374H106.387V33.8844H95.9385V37.1837H106.387V40.1327H95.9385V43.4796H106.387V44.6293C106.392 44.8314 106.358 45.0326 106.286 45.2211C106.215 45.4097 106.107 45.5819 105.969 45.7279C105.839 45.8736 105.68 45.9894 105.503 46.0674C105.325 46.1454 105.134 46.1839 104.94 46.1803H101.722V49.5272H104.94C105.549 49.5363 106.153 49.4143 106.712 49.1693C107.271 48.9243 107.773 48.5618 108.185 48.1055C108.621 47.6441 108.964 47.0995 109.193 46.503C109.423 45.9065 109.534 45.2697 109.521 44.6293V43.4796H115.913C116.522 43.4894 117.125 43.3675 117.683 43.1217C118.241 42.876 118.742 42.5122 119.151 42.0544C119.588 41.5939 119.931 41.05 120.16 40.4539C120.39 39.8579 120.501 39.2216 120.488 38.5817V37.1837H122.105V33.8844L120.474 33.8946ZM106.387 21.3402H99.066V15.7007H106.387V21.3402ZM117.35 38.5919C117.355 38.7942 117.32 38.9956 117.248 39.1842C117.176 39.3728 117.067 39.5449 116.929 39.6905C116.8 39.8351 116.642 39.9503 116.466 40.0282C116.289 40.1062 116.099 40.1453 115.907 40.1429H109.515V37.1939H117.35V38.5919ZM117.35 33.8946H109.515V31.0476H117.35V33.8946Z" fill="black"></path>
      <path d="M90.1578 6.15283H71.8001V20.3705H74.9009V9.48616H76.8255V22.6154L71.0649 49.5032L74.3863 49.5304C74.3863 49.5304 79.9531 22.8875 79.9531 22.8195V9.48957H81.9245V22.6188L76.5449 49.5338H79.7994C79.7994 49.5338 85.0521 22.8875 85.0521 22.8195V9.48957H87.0269V44.612C87.0373 45.0186 86.8951 45.4139 86.6292 45.7175C86.5116 45.8657 86.365 45.9876 86.1989 46.0754C86.0327 46.1632 85.8504 46.2151 85.6636 46.2277H82.5694L81.714 49.5338H85.58C86.1892 49.5432 86.7934 49.4204 87.3523 49.1735C87.9112 48.9266 88.4119 48.5612 88.8212 48.1018C89.2585 47.6381 89.6016 47.0912 89.8309 46.4924C90.0603 45.8936 90.1713 45.2546 90.1578 44.612V6.15283Z" fill="black"></path>
      <path d="M136.824 6.15283H126.673V49.4317H132.42C132.644 49.432 132.867 49.4149 133.088 49.3807C134.099 49.2581 135.041 48.7934 135.761 48.061C136.343 47.4045 136.851 46.493 136.851 38.7651L136.824 6.15283ZM133.88 44.4488C133.892 44.8813 133.742 45.3021 133.459 45.6256C133.331 45.778 133.172 45.8998 132.992 45.9821C132.812 46.0644 132.617 46.1053 132.42 46.1018H129.633V24.7413H133.88V44.4488ZM133.88 21.459H129.633V8.95216H133.88V21.459Z" fill="black"></path>
      <path d="M156.849 27.5814V8.9522H156.832V5.9624H151.519V9.27873H153.685V13.0202V13.8672V27.5814H151.012H150.958H149.855V7.60186V6.04064H144.509C143.216 6.06656 141.985 6.6135 141.087 7.56158C140.188 8.50965 139.696 9.78153 139.718 11.0985V14.6869V27.5814H138.498V30.9284H145.926L137.983 49.3502H141.422L149.344 30.9454H158.162V27.5814H156.849ZM146.721 27.5814H142.875V15.9454V11.0985C142.872 10.8717 142.912 10.6465 142.994 10.4356C143.076 10.2248 143.198 10.0325 143.354 9.86984C143.509 9.70712 143.694 9.57717 143.899 9.48741C144.103 9.39765 144.323 9.34986 144.546 9.34676H146.731L146.721 27.5814Z" fill="black"></path>
      <path d="M176.49 27.3164V49.5307H162.88V46.262H173.523L173.513 39.3368H162.88V35.8878H173.523L173.513 30.7654H162.88V27.3164H176.49Z" fill="black"></path>
      <path d="M64.4728 38.7993H59.7046V42.0986H64.4728V38.7993Z" fill="black"></path>
      <path d="M69.264 8.65967H61.6924V11.959H69.264V8.65967Z" fill="black"></path>
      <path d="M69.4814 6.48975H66.1533V49.5374H69.4814V6.48975Z" fill="black"></path>
      <path d="M61.6656 6.33691L59.7075 33.9356H63.0422L65.0037 6.33691H61.6656Z" fill="black"></path>
      <path d="M79.9766 9.48975H76.8257V20.5714H79.9766V9.48975Z" fill="black"></path>
      <path d="M69.5415 6.52051H66.1733V49.3743H69.5415V6.52051Z" fill="black"></path>
  </g>
  <defs>
      <clipPath id="clip0_63_67">
          <rect width="187.5" height="50" fill="white"></rect>
      </clipPath>
  </defs>
</svg>