<svg width="22" height="22" viewBox="0 0 22 22" fill="none" xmlns="http://www.w3.org/2000/svg">
    <path fill-rule="evenodd" clip-rule="evenodd" d="M5.76303 5.6557C6.15164 4.71569 6.80142 4.53085 7.15471 4.50431C8.47245 4.40638 10.0247 6.01942 12.3583 9.89349C12.5931 10.2832 12.8112 10.6478 12.9999 10.9641C13.1876 10.6494 13.4053 10.2854 13.6415 9.89349C15.9755 6.01838 17.5345 4.40697 18.8452 4.50431C19.1982 4.53085 19.848 4.71569 20.2367 5.6557C20.7729 6.95198 20.37 9.48803 20.082 10.8843C19.6472 12.9929 18.947 15.0928 18.2981 16.2345C17.8666 16.9936 17.4352 17.3809 16.9406 17.4531C16.8613 17.4647 16.7805 17.4705 16.7004 17.4705C15.2394 17.4705 13.8482 15.5626 13 14.1088C12.1518 15.5626 10.7608 17.4705 9.29932 17.4705C9.21927 17.4705 9.13833 17.4647 9.05888 17.4531C8.56457 17.3809 8.13318 16.9936 7.70163 16.2345C7.05275 15.0929 6.35258 12.9929 5.91776 10.8843C5.62976 9.48803 5.22684 6.95212 5.76303 5.6557ZM13.8851 12.4995C14.0996 12.908 14.4722 13.5798 14.9223 14.2345C15.6405 15.279 16.1375 15.679 16.4232 15.8315C16.5531 15.9006 16.7124 15.8584 16.7936 15.7358C17.1176 15.2474 17.7383 13.9613 18.3116 11.6825C18.9231 9.25213 19.1274 7.01659 18.8086 6.24592C18.7583 6.12443 18.6133 6.07465 18.5002 6.14128C18.0682 6.39544 16.9949 7.32129 14.9654 10.6905C14.5085 11.4491 14.1149 12.1114 13.8851 12.4995ZM9.1848 15.7051C8.85805 15.1967 8.25031 13.9168 7.68848 11.6829C7.07701 9.25252 6.87264 7.01698 7.1912 6.24646L7.19254 6.24288C7.24412 6.11916 7.38066 6.0716 7.49648 6.13928C7.9246 6.39016 8.99877 7.31109 11.0347 10.6909C11.4931 11.452 11.8878 12.1161 12.1172 12.5036C11.2491 14.1954 10.2503 15.4273 9.64288 15.8049C9.48771 15.9013 9.28364 15.8588 9.1848 15.7051Z" fill="#fff"></path>
</svg>